<svg width="122" height="36" viewBox="0 0 122 36" fill="none" xmlns="http://www.w3.org/2000/svg">
<g clip-path="url(#clip0)">
<path d="M117.5 0H5C2.51472 0 0.5 2.01472 0.5 4.5V31.5C0.5 33.9853 2.51472 36 5 36H117.5C119.985 36 122 33.9853 122 31.5V4.5C122 2.01472 119.985 0 117.5 0Z" fill="black"/>
<path d="M117.5 0.72C118.503 0.72 119.464 1.11825 120.173 1.82714C120.882 2.53602 121.28 3.49748 121.28 4.5V31.5C121.28 32.5025 120.882 33.464 120.173 34.1729C119.464 34.8818 118.503 35.28 117.5 35.28H5C3.99748 35.28 3.03602 34.8818 2.32714 34.1729C1.61825 33.464 1.22 32.5025 1.22 31.5V4.5C1.22 3.49748 1.61825 2.53602 2.32714 1.82714C3.03602 1.11825 3.99748 0.72 5 0.72H117.5ZM117.5 0H5C3.80653 0 2.66193 0.474106 1.81802 1.31802C0.974106 2.16193 0.5 3.30653 0.5 4.5L0.5 31.5C0.5 32.6935 0.974106 33.8381 1.81802 34.682C2.66193 35.5259 3.80653 36 5 36H117.5C118.693 36 119.838 35.5259 120.682 34.682C121.526 33.8381 122 32.6935 122 31.5V4.5C122 3.30653 121.526 2.16193 120.682 1.31802C119.838 0.474106 118.693 0 117.5 0V0Z" fill="#A6A6A6"/>
<path d="M27.986 18.27C27.9939 17.5183 28.193 16.781 28.5646 16.1276C28.9362 15.4741 29.4681 14.9261 30.11 14.535C29.7022 13.9536 29.1645 13.4752 28.5396 13.1378C27.9147 12.8004 27.2198 12.6132 26.51 12.591C25.007 12.429 23.54 13.491 22.766 13.491C21.992 13.491 20.795 12.591 19.517 12.591C18.6913 12.6178 17.8866 12.8583 17.1815 13.2889C16.4764 13.7196 15.895 14.3256 15.494 15.048C13.757 18.054 15.053 22.482 16.718 24.948C17.555 26.145 18.518 27.477 19.805 27.423C21.092 27.369 21.515 26.631 23.027 26.631C24.539 26.631 24.953 27.423 26.258 27.396C27.563 27.369 28.445 26.199 29.246 24.993C29.844 24.1429 30.3056 23.2045 30.614 22.212C29.8375 21.8852 29.1743 21.3373 28.707 20.6363C28.2397 19.9354 27.989 19.1124 27.986 18.27Z" fill="white"/>
<path d="M25.529 10.989C26.2563 10.111 26.6144 8.9849 26.528 7.84802C25.4124 7.96842 24.382 8.50126 23.639 9.34202C22.9107 10.1748 22.5418 11.262 22.613 12.366C23.1714 12.3715 23.7239 12.2505 24.2289 12.012C24.734 11.7735 25.1784 11.4238 25.529 10.989Z" fill="white"/>
<path d="M43.763 24.426H39.506L38.48 27.45H36.68L40.712 16.272H42.584L46.625 27.45H44.825L43.763 24.426ZM39.947 23.031H43.322L41.657 18.126L39.947 23.031Z" fill="white"/>
<path d="M55.337 23.4C55.337 25.929 53.978 27.558 51.935 27.558C51.4138 27.58 50.8968 27.455 50.4432 27.1972C49.9897 26.9394 49.6178 26.5592 49.37 26.1V30.132H47.66V19.332H49.28V20.7C49.5431 20.2474 49.9238 19.8746 50.3818 19.621C50.8398 19.3675 51.3579 19.2427 51.881 19.26C53.978 19.215 55.337 20.844 55.337 23.4ZM53.6 23.4C53.6 21.753 52.7 20.7 51.449 20.7C50.198 20.7 49.307 21.807 49.307 23.4C49.307 24.993 50.207 26.145 51.449 26.145C52.691 26.145 53.6 25.038 53.6 23.4Z" fill="white"/>
<path d="M64.301 23.4C64.301 25.929 62.951 27.558 60.908 27.558C60.3866 27.5811 59.8692 27.4566 59.4154 27.1986C58.9616 26.9407 58.5899 26.5599 58.343 26.1V30.132H56.633V19.332H58.253V20.7C58.5153 20.2488 58.8946 19.8769 59.3509 19.6234C59.8071 19.37 60.3233 19.2444 60.845 19.26C62.942 19.215 64.301 20.844 64.301 23.4ZM62.6 23.4C62.6 21.753 61.754 20.7 60.449 20.7C59.144 20.7 58.316 21.807 58.316 23.4C58.316 24.993 59.216 26.145 60.449 26.145C61.682 26.145 62.6 25.038 62.6 23.4Z" fill="white"/>
<path d="M70.232 24.3C70.358 25.407 71.429 26.1 72.932 26.1C74.435 26.1 75.353 25.371 75.353 24.372C75.353 23.373 74.741 22.986 73.292 22.626L71.843 22.275C69.791 21.78 68.846 20.826 68.846 19.269C68.846 17.334 70.52 16.011 72.905 16.011C75.29 16.011 76.892 17.334 76.946 19.269H75.2C75.101 18.153 74.174 17.469 72.833 17.469C71.492 17.469 70.565 18.144 70.565 19.143C70.565 19.926 71.15 20.394 72.59 20.754L73.823 21.051C76.118 21.591 77.072 22.518 77.072 24.147C77.072 26.244 75.407 27.549 72.752 27.549C70.277 27.549 68.603 26.271 68.495 24.255L70.232 24.3Z" fill="white"/>
<path d="M80.708 17.37V19.296H82.256V20.619H80.708V25.119C80.708 25.812 81.014 26.136 81.698 26.136C81.8808 26.1472 82.0641 26.1472 82.247 26.136V27.45C81.9503 27.5059 81.6489 27.533 81.347 27.531C79.691 27.531 79.052 26.91 79.052 25.326V20.619H77.837V19.296H79.025V17.37H80.708Z" fill="white"/>
<path d="M83.1559 23.4C83.1559 20.835 84.6589 19.224 87.0169 19.224C89.3749 19.224 90.8779 20.835 90.8779 23.4C90.8779 25.965 89.3839 27.576 87.0169 27.576C84.6499 27.576 83.1559 25.947 83.1559 23.4ZM89.1769 23.4C89.1769 21.645 88.3759 20.601 87.0169 20.601C85.6579 20.601 84.857 21.6 84.857 23.4C84.857 25.2 85.6579 26.199 87.0169 26.199C88.3759 26.199 89.1769 25.137 89.1769 23.4Z" fill="white"/>
<path d="M92.3 19.296H93.893V20.7C93.9999 20.2562 94.2597 19.8643 94.6266 19.5928C94.9936 19.3212 95.4443 19.1875 95.9 19.215C96.0939 19.2119 96.2874 19.2331 96.476 19.278V20.844C96.2325 20.7628 95.9764 20.7262 95.72 20.736C95.4765 20.7267 95.2338 20.7701 95.0086 20.8632C94.7834 20.9564 94.581 21.0971 94.4152 21.2757C94.2494 21.4543 94.1241 21.6666 94.048 21.8981C93.9718 22.1296 93.9466 22.3749 93.974 22.617V27.45H92.3V19.296Z" fill="white"/>
<path d="M104.135 25.056C103.91 26.532 102.47 27.549 100.634 27.549C98.258 27.549 96.791 25.956 96.791 23.409C96.791 20.862 98.267 19.197 100.562 19.197C102.857 19.197 104.234 20.745 104.234 23.22V23.787H98.474V23.895C98.4483 24.1949 98.4866 24.4968 98.5864 24.7807C98.6861 25.0646 98.8451 25.3241 99.0527 25.5419C99.2604 25.7598 99.5119 25.931 99.7908 26.0443C100.07 26.1576 100.369 26.2103 100.67 26.199C101.065 26.2359 101.461 26.1446 101.8 25.9387C102.138 25.7329 102.402 25.4233 102.551 25.056H104.135ZM98.483 22.617H102.56C102.575 22.3478 102.534 22.0783 102.44 21.8257C102.346 21.5731 102.2 21.3427 102.012 21.149C101.825 20.9554 101.599 20.8028 101.349 20.7007C101.1 20.5987 100.832 20.5494 100.562 20.556C100.29 20.5548 100.021 20.6072 99.7692 20.7101C99.5176 20.8131 99.2887 20.9646 99.0957 21.1559C98.9026 21.3473 98.7491 21.5749 98.644 21.8255C98.5389 22.0762 98.4842 22.3452 98.483 22.617Z" fill="white"/>
<path d="M39.74 7.85701C40.0931 7.83213 40.4473 7.88646 40.7768 8.01604C41.1062 8.14562 41.4025 8.34716 41.644 8.60595C41.8856 8.86473 42.0662 9.17422 42.1728 9.51178C42.2794 9.84934 42.3092 10.2065 42.26 10.557C42.26 12.267 41.36 13.257 39.74 13.257H37.796V7.85701H39.74ZM38.633 12.465H39.641C39.8937 12.4854 40.1476 12.4485 40.384 12.357C40.6204 12.2655 40.833 12.1218 41.0061 11.9366C41.1791 11.7515 41.3081 11.5296 41.3834 11.2876C41.4588 11.0456 41.4784 10.7897 41.441 10.539C41.4767 10.2886 41.4558 10.0334 41.3798 9.79222C41.3039 9.55099 41.1748 9.32986 41.0021 9.14509C40.8294 8.96032 40.6175 8.81661 40.382 8.72453C40.1464 8.63245 39.8932 8.59434 39.641 8.61301H38.633V12.465Z" fill="white"/>
<path d="M43.205 11.196C43.187 10.9338 43.2231 10.6707 43.3111 10.4231C43.399 10.1754 43.537 9.9485 43.7163 9.75642C43.8957 9.56433 44.1126 9.41117 44.3537 9.30646C44.5947 9.20174 44.8547 9.14771 45.1175 9.14771C45.3803 9.14771 45.6403 9.20174 45.8813 9.30646C46.1224 9.41117 46.3393 9.56433 46.5187 9.75642C46.698 9.9485 46.836 10.1754 46.9239 10.4231C47.0119 10.6707 47.048 10.9338 47.03 11.196C47.048 11.4582 47.0119 11.7213 46.9239 11.9689C46.836 12.2165 46.698 12.4435 46.5187 12.6355C46.3393 12.8276 46.1224 12.9808 45.8813 13.0855C45.6403 13.1902 45.3803 13.2443 45.1175 13.2443C44.8547 13.2443 44.5947 13.1902 44.3537 13.0855C44.1126 12.9808 43.8957 12.8276 43.7163 12.6355C43.537 12.4435 43.399 12.2165 43.3111 11.9689C43.2231 11.7213 43.187 11.4582 43.205 11.196ZM46.202 11.196C46.202 10.296 45.815 9.80998 45.122 9.80998C44.429 9.80998 44.033 10.323 44.033 11.196C44.033 12.069 44.42 12.6 45.122 12.6C45.824 12.6 46.202 12.078 46.202 11.196Z" fill="white"/>
<path d="M52.106 13.23H51.278L50.441 10.242H50.378L49.541 13.23H48.722L47.606 9.17102H48.416L49.145 12.267H49.199L50 9.17102H50.765L51.602 12.267H51.665L52.385 9.17102H53.186L52.106 13.23Z" fill="white"/>
<path d="M54.158 9.17101H54.932V9.81901H54.995C55.0945 9.58724 55.2647 9.39283 55.4813 9.26353C55.6979 9.13423 55.9497 9.07665 56.201 9.09901C56.398 9.08333 56.5961 9.11231 56.7804 9.18379C56.9647 9.25528 57.1305 9.36743 57.2655 9.51189C57.4004 9.65636 57.501 9.82941 57.5598 10.0182C57.6186 10.2069 57.634 10.4065 57.605 10.602V13.23H56.804V10.8C56.804 10.143 56.516 9.81901 55.904 9.81901C55.7685 9.80671 55.632 9.82528 55.5048 9.87331C55.3775 9.92135 55.2628 9.99761 55.1692 10.0964C55.0757 10.1951 55.0057 10.3138 54.9646 10.4434C54.9235 10.5731 54.9124 10.7104 54.932 10.845V13.23H54.131L54.158 9.17101Z" fill="white"/>
<path d="M58.874 7.59601H59.675V13.23H58.874V7.59601Z" fill="white"/>
<path d="M60.8 11.196C60.782 10.9338 60.8181 10.6707 60.906 10.4231C60.994 10.1754 61.1319 9.9485 61.3113 9.75642C61.4907 9.56433 61.7076 9.41117 61.9486 9.30646C62.1897 9.20174 62.4497 9.14771 62.7125 9.14771C62.9753 9.14771 63.2353 9.20174 63.4763 9.30646C63.7173 9.41117 63.9343 9.56433 64.1136 9.75642C64.293 9.9485 64.4309 10.1754 64.5189 10.4231C64.6069 10.6707 64.643 10.9338 64.625 11.196C64.643 11.4582 64.6069 11.7213 64.5189 11.9689C64.4309 12.2165 64.293 12.4435 64.1136 12.6355C63.9343 12.8276 63.7173 12.9808 63.4763 13.0855C63.2353 13.1902 62.9753 13.2443 62.7125 13.2443C62.4497 13.2443 62.1897 13.1902 61.9486 13.0855C61.7076 12.9808 61.4907 12.8276 61.3113 12.6355C61.1319 12.4435 60.994 12.2165 60.906 11.9689C60.8181 11.7213 60.782 11.4582 60.8 11.196ZM63.797 11.196C63.797 10.296 63.401 9.80998 62.708 9.80998C62.015 9.80998 61.628 10.323 61.628 11.196C61.628 12.069 62.006 12.6 62.699 12.6C63.392 12.6 63.788 12.078 63.788 11.196H63.797Z" fill="white"/>
<path d="M65.453 12.078C65.453 11.349 65.993 10.935 66.965 10.872L68.063 10.8V10.449C68.063 10.026 67.775 9.78303 67.226 9.78303C66.677 9.78303 66.47 9.94503 66.389 10.233H65.615C65.696 9.53103 66.344 9.09003 67.262 9.09003C68.18 9.09003 68.9 9.60303 68.9 10.458V13.23H68.09V12.654H68C67.8738 12.8601 67.6943 13.0283 67.4805 13.1408C67.2666 13.2533 67.0263 13.3059 66.785 13.293C66.6162 13.308 66.4461 13.2877 66.2855 13.2335C66.1249 13.1793 65.9773 13.0923 65.8521 12.9781C65.7269 12.8639 65.6268 12.7249 65.5581 12.57C65.4894 12.415 65.4536 12.2475 65.453 12.078ZM68.063 11.736V11.394L67.073 11.457C66.515 11.457 66.254 11.691 66.254 12.042C66.254 12.393 66.578 12.618 67.01 12.618C67.1404 12.6317 67.2721 12.6184 67.3971 12.5788C67.5221 12.5393 67.6376 12.4745 67.7364 12.3883C67.8352 12.3022 67.9152 12.1966 67.9714 12.0782C68.0276 11.9598 68.0588 11.831 68.063 11.7V11.736Z" fill="white"/>
<path d="M69.908 11.196C69.908 9.91801 70.565 9.10801 71.591 9.10801C71.844 9.09714 72.0949 9.15815 72.3147 9.28398C72.5345 9.40981 72.7142 9.59531 72.833 9.81901H72.887V7.59601H73.688V13.23H72.923V12.6H72.86C72.7324 12.8214 72.5467 13.0038 72.3231 13.1275C72.0995 13.2512 71.8463 13.3116 71.591 13.302C70.556 13.293 69.908 12.483 69.908 11.196ZM70.736 11.196C70.736 12.096 71.141 12.573 71.816 12.573C72.491 12.573 72.9049 12.051 72.9049 11.205C72.9049 10.359 72.482 9.82801 71.816 9.82801C71.15 9.82801 70.7 10.35 70.7 11.196H70.736Z" fill="white"/>
<path d="M77 11.196C76.982 10.9338 77.0181 10.6707 77.1061 10.4231C77.194 10.1754 77.332 9.9485 77.5113 9.75642C77.6907 9.56433 77.9076 9.41117 78.1486 9.30646C78.3897 9.20174 78.6497 9.14771 78.9125 9.14771C79.1753 9.14771 79.4353 9.20174 79.6763 9.30646C79.9174 9.41117 80.1343 9.56433 80.3136 9.75642C80.493 9.9485 80.6309 10.1754 80.7189 10.4231C80.8069 10.6707 80.843 10.9338 80.825 11.196C80.843 11.4582 80.8069 11.7213 80.7189 11.9689C80.6309 12.2165 80.493 12.4435 80.3136 12.6355C80.1343 12.8276 79.9174 12.9808 79.6763 13.0855C79.4353 13.1902 79.1753 13.2443 78.9125 13.2443C78.6497 13.2443 78.3897 13.1902 78.1486 13.0855C77.9076 12.9808 77.6907 12.8276 77.5113 12.6355C77.332 12.4435 77.194 12.2165 77.1061 11.9689C77.0181 11.7213 76.982 11.4582 77 11.196ZM79.997 11.196C79.997 10.296 79.601 9.80998 78.917 9.80998C78.233 9.80998 77.828 10.323 77.828 11.196C77.828 12.069 78.215 12.6 78.917 12.6C79.619 12.6 79.997 12.078 79.997 11.196Z" fill="white"/>
<path d="M81.896 9.17101H82.67V9.81901H82.724C82.8273 9.58818 82.9996 9.39503 83.2172 9.2661C83.4347 9.13717 83.6869 9.0788 83.939 9.09901C84.1353 9.08475 84.3324 9.11479 84.5155 9.18691C84.6987 9.25903 84.8633 9.37138 84.9973 9.51567C85.1312 9.65995 85.231 9.83249 85.2893 10.0205C85.3475 10.2085 85.3628 10.4073 85.334 10.602V13.23H84.542V10.8C84.542 10.143 84.254 9.81901 83.642 9.81901C83.5072 9.80815 83.3718 9.82779 83.2457 9.87647C83.1195 9.92514 83.006 10.0016 82.9135 10.1002C82.821 10.1987 82.7518 10.3169 82.7112 10.4458C82.6707 10.5748 82.6596 10.7112 82.679 10.845V13.23H81.878L81.896 9.17101Z" fill="white"/>
<path d="M89.861 8.16302V9.19803H90.761V9.90003H89.861V11.988C89.861 12.411 90.032 12.6 90.428 12.6H90.734V13.266C90.5902 13.2761 90.4458 13.2761 90.302 13.266C89.402 13.266 89.06 12.96 89.06 12.177V9.90003H88.412V9.23403H89.06V8.16302H89.861Z" fill="white"/>
<path d="M91.823 7.59601H92.624V9.82801H92.687C92.791 9.59323 92.9657 9.39679 93.1868 9.2661C93.4078 9.13541 93.6641 9.077 93.92 9.09901C94.1163 9.08786 94.3127 9.12033 94.4951 9.1941C94.6774 9.26786 94.8411 9.38109 94.9745 9.52564C95.1078 9.67019 95.2075 9.84249 95.2664 10.0301C95.3253 10.2178 95.3419 10.4162 95.315 10.611V13.23H94.514V10.8C94.514 10.152 94.217 9.82801 93.614 9.82801C93.4765 9.81717 93.3383 9.83628 93.2089 9.88401C93.0795 9.93174 92.962 10.007 92.8645 10.1045C92.7669 10.202 92.6917 10.3195 92.644 10.4489C92.5963 10.5783 92.5771 10.7165 92.588 10.854V13.23H91.787L91.823 7.59601Z" fill="white"/>
<path d="M99.977 12.132C99.8681 12.511 99.626 12.8381 99.2954 13.053C98.9647 13.2679 98.5676 13.3563 98.177 13.302C97.9083 13.3163 97.6399 13.2702 97.3914 13.1671C97.1429 13.0639 96.9207 12.9064 96.7412 12.7061C96.5616 12.5058 96.4292 12.2678 96.3537 12.0096C96.2782 11.7514 96.2615 11.4795 96.305 11.214C96.2702 10.9486 96.2928 10.6788 96.3712 10.4228C96.4496 10.1668 96.5819 9.93067 96.7593 9.73021C96.9368 9.52976 97.1551 9.36969 97.3997 9.2608C97.6442 9.15191 97.9093 9.09674 98.177 9.09901C99.302 9.09901 99.977 9.86401 99.977 11.142V11.421H97.115V11.466C97.1044 11.6169 97.1262 11.7682 97.1789 11.91C97.2316 12.0518 97.3139 12.1806 97.4205 12.288C97.527 12.3953 97.6552 12.4787 97.7965 12.5325C97.9378 12.5863 98.089 12.6093 98.24 12.6C98.4327 12.6218 98.6275 12.5864 98.8003 12.4984C98.9731 12.4104 99.1162 12.2736 99.212 12.105L99.977 12.132ZM97.169 10.8H99.212C99.222 10.6637 99.2035 10.5268 99.1576 10.3981C99.1117 10.2694 99.0394 10.1517 98.9453 10.0526C98.8513 9.95347 98.7375 9.87508 98.6114 9.82245C98.4853 9.76982 98.3496 9.74413 98.213 9.74701C98.0748 9.74578 97.9377 9.77225 97.8099 9.82485C97.6821 9.87745 97.5661 9.95511 97.4688 10.0533C97.3715 10.1514 97.2949 10.268 97.2434 10.3963C97.1919 10.5246 97.1666 10.6618 97.169 10.8Z" fill="white"/>
</g>
<defs>
<clipPath id="clip0">
<rect width="121.5" height="36" fill="white" transform="translate(0.5)"/>
</clipPath>
</defs>
</svg>
