<svg id="Layer_1" data-name="Layer 1" xmlns="http://www.w3.org/2000/svg" viewBox="0 0 24 24"><defs><style>.cls-1{fill:#525a67}</style></defs><path class="cls-1" d="M20 2H4a2 2 0 0 0-2 2v16a2 2 0 0 0 2 2h16a2 2 0 0 0 2-2V4a2 2 0 0 0-2-2zM4 20V4h16v16z"/><path class="cls-1" d="M14.71 8.29a1 1 0 0 0-1.42 0L11 10.59l-1.29-1.3a1 1 0 0 0-1.42 0l-3 3a1 1 0 0 0 1.42 1.42L9 11.41l1.29 1.3a1 1 0 0 0 1.42 0l2.29-2.3 3.29 3.3a1 1 0 0 0 1.42 0 1 1 0 0 0 0-1.42zM17 16H7a1 1 0 0 0 0 2h10a1 1 0 0 0 0-2z"/><path fill="none" d="M0 0h24v24H0z"/></svg>