<svg id="Layer_1" data-name="Layer 1" xmlns="http://www.w3.org/2000/svg" viewBox="0 0 24 24"><defs><style>.cls-3{fill:#145638}</style></defs><rect x="2.5" y="2" width="19" height="16" rx="2" fill="#00aa5b"/><path d="M8.62 10.75l2.29 2.73 3.29-4.25a.55.55 0 0 1 .9 0l3.78 5c.3.3 0 .81-.4.81H5.54a.54.54 0 0 1-.4-.91l2.69-3.44a.51.51 0 0 1 .79.06z" fill="#fff"/><path class="cls-3" d="M10 8.5a2 2 0 1 0-2-2 2 2 0 0 0 2 2z"/><rect class="cls-3" x="2.75" y="19.5" width="18.5" height="2.5" rx="1.25"/><path fill="none" d="M0 0h24v24H0z"/></svg>