<svg id="Layer_1" data-name="Layer 1" xmlns="http://www.w3.org/2000/svg" viewBox="0 0 24 24"><defs><style>.cls-1{fill:#525a67}</style></defs><path class="cls-1" d="M20 2h-3a7.54 7.54 0 0 0-5 1.8A7.54 7.54 0 0 0 7 2H4a2 2 0 0 0-2 2v16a2 2 0 0 0 2 2h10a8 8 0 0 0 8-8V4a2 2 0 0 0-2-2zm0 12a6 6 0 0 1-6 6H4V4h3a5.23 5.23 0 0 1 4.2 1.87l.8 1 .8-1A5.22 5.22 0 0 1 17 4h3z"/><path class="cls-1" d="M16.29 8.29L11 13.59l-2.29-2.3a1 1 0 1 0-1.42 1.42l3 3a1 1 0 0 0 1.42 0l6-6a1 1 0 0 0-1.42-1.42z"/><path fill="none" d="M0 0h24v24H0z"/></svg>