<svg data-name="Layer 1" xmlns="http://www.w3.org/2000/svg" viewBox="0 0 24 24"><path d="M21.25 3.76a1 1 0 0 0-1-1h-3.1A6.44 6.44 0 0 0 12 5.07h0a6.44 6.44 0 0 0-5.15-2.32h-3.1a1 1 0 0 0-1 1v16.5a1 1 0 0 0 1 1h10.5a7 7 0 0 0 7-7z" fill="#7f37d7" stroke="#7f37d7" stroke-linecap="round" stroke-miterlimit="10" stroke-width="1.5" fill-rule="evenodd"/><path d="M11 16.35a1.37 1.37 0 0 1-1-.35l-3-3a1.36 1.36 0 1 1 2-2l2 2.05L16 8a1.36 1.36 0 0 1 2 2l-6 6a1.37 1.37 0 0 1-1 .35z" fill="#ffa617"/><path fill="none" d="M0 0h24v24H0z"/></svg>