<svg width="122" height="36" viewBox="0 0 122 36" fill="none" xmlns="http://www.w3.org/2000/svg">
<g clip-path="url(#clip0)">
<path d="M117 0H4.5C2.01472 0 0 2.01472 0 4.5V31.5C0 33.9853 2.01472 36 4.5 36H117C119.485 36 121.5 33.9853 121.5 31.5V4.5C121.5 2.01472 119.485 0 117 0Z" fill="black"/>
<path d="M117 0.72C118.003 0.72 118.964 1.11825 119.673 1.82714C120.382 2.53602 120.78 3.49748 120.78 4.5V31.5C120.78 32.5025 120.382 33.464 119.673 34.1729C118.964 34.8818 118.003 35.28 117 35.28H4.5C3.49748 35.28 2.53602 34.8818 1.82714 34.1729C1.11825 33.464 0.72 32.5025 0.72 31.5V4.5C0.72 3.49748 1.11825 2.53602 1.82714 1.82714C2.53602 1.11825 3.49748 0.72 4.5 0.72H117ZM117 0H4.5C3.30653 0 2.16193 0.474106 1.31802 1.31802C0.474106 2.16193 0 3.30653 0 4.5L0 31.5C0 32.6935 0.474106 33.8381 1.31802 34.682C2.16193 35.5259 3.30653 36 4.5 36H117C118.193 36 119.338 35.5259 120.182 34.682C121.026 33.8381 121.5 32.6935 121.5 31.5V4.5C121.5 3.30653 121.026 2.16193 120.182 1.31802C119.338 0.474106 118.193 0 117 0V0Z" fill="#A6A6A6"/>
<path d="M42.714 8.721H39.933V9.549H41.886C41.8541 9.90231 41.7053 10.2349 41.463 10.494C41.2744 10.6824 41.0495 10.8306 40.802 10.9296C40.5545 11.0286 40.2895 11.0764 40.023 11.07C39.7537 11.0714 39.4869 11.0183 39.2386 10.914C38.9903 10.8096 38.7657 10.6562 38.5782 10.4628C38.3908 10.2695 38.2443 10.0402 38.1477 9.78884C38.0511 9.53745 38.0063 9.26913 38.016 9C38.0063 8.73086 38.0511 8.46254 38.1477 8.21116C38.2443 7.95977 38.3908 7.73052 38.5782 7.53717C38.7657 7.34382 38.9903 7.19036 39.2386 7.08602C39.4869 6.98168 39.7537 6.92861 40.023 6.93C40.2841 6.91938 40.5441 6.96906 40.783 7.0752C41.0218 7.18133 41.2329 7.34106 41.4 7.542L41.463 7.614L42.066 7.011L42.021 6.948C41.7754 6.67151 41.4666 6.45846 41.121 6.327C40.761 6.16853 40.3713 6.08875 39.978 6.093C39.5994 6.09534 39.2251 6.17253 38.8765 6.32011C38.5279 6.4677 38.2119 6.68278 37.9467 6.95296C37.6815 7.22314 37.4724 7.5431 37.3314 7.89441C37.1904 8.24573 37.1202 8.62146 37.125 9C37.1202 9.38232 37.1918 9.76176 37.3356 10.116C37.4794 10.4703 37.6926 10.7923 37.9625 11.0631C38.2325 11.3339 38.5538 11.548 38.9076 11.6929C39.2614 11.8378 39.6406 11.9106 40.023 11.907C40.4019 11.9216 40.7797 11.8562 41.1317 11.7151C41.4837 11.574 41.8021 11.3603 42.066 11.088C42.3036 10.8397 42.4884 10.5458 42.6091 10.224C42.7298 9.90224 42.7838 9.5593 42.768 9.216C42.7659 9.07392 42.7508 8.93233 42.723 8.793L42.714 8.721Z" fill="white"/>
<path d="M43.578 11.79H46.917V10.944H44.46V9.41402H46.674V8.58602H44.46V7.05602H46.917V6.21002H43.578V11.79Z" fill="white"/>
<path d="M47.457 7.05602H48.969V11.79H49.842V7.05602H51.345V6.21002H47.457V7.05602Z" fill="white"/>
<path d="M54.729 6.21002H53.856V11.79H54.729V6.21002Z" fill="white"/>
<path d="M55.422 7.05602H56.934V11.79H57.807V7.05602H59.31V6.21002H55.422V7.05602Z" fill="white"/>
<path d="M64.269 6.09302C63.8881 6.08185 63.5091 6.15147 63.157 6.29728C62.8048 6.44309 62.4876 6.6618 62.226 6.93902C61.958 7.20988 61.7474 7.53199 61.6066 7.88611C61.4659 8.24022 61.398 8.61907 61.407 9.00002C61.398 9.38096 61.4659 9.75981 61.6066 10.1139C61.7474 10.468 61.958 10.7902 62.226 11.061C62.4943 11.3293 62.8128 11.5422 63.1634 11.6874C63.5139 11.8326 63.8896 11.9074 64.269 11.9074C64.6485 11.9074 65.0242 11.8326 65.3747 11.6874C65.7253 11.5422 66.0438 11.3293 66.312 11.061C66.5801 10.7902 66.7907 10.468 66.9314 10.1139C67.0722 9.75981 67.14 9.38096 67.131 9.00002C67.1395 8.61914 67.0714 8.24044 66.9307 7.88639C66.79 7.53235 66.5796 7.21018 66.312 6.93902C66.0505 6.6618 65.7332 6.44309 65.3811 6.29728C65.029 6.15147 64.65 6.08185 64.269 6.09302ZM65.7 10.485C65.516 10.6701 65.2973 10.8169 65.0563 10.9171C64.8154 11.0173 64.557 11.0689 64.296 11.0689C64.0351 11.0689 63.7767 11.0173 63.5358 10.9171C63.2948 10.8169 63.076 10.6701 62.892 10.485C62.6966 10.2909 62.5425 10.0593 62.4388 9.80412C62.3352 9.54892 62.2843 9.27541 62.289 9.00002C62.2807 8.72653 62.3274 8.45416 62.4264 8.19907C62.5253 7.94398 62.6745 7.71136 62.865 7.51502C63.049 7.32998 63.2678 7.18313 63.5088 7.08293C63.7497 6.98273 64.0081 6.93115 64.269 6.93115C64.53 6.93115 64.7884 6.98273 65.0293 7.08293C65.2703 7.18313 65.489 7.32998 65.673 7.51502C65.8636 7.71136 66.0128 7.94398 66.1117 8.19907C66.2107 8.45416 66.2574 8.72653 66.249 9.00002C66.2609 9.27162 66.2185 9.54286 66.1242 9.79786C66.03 10.0529 65.8858 10.2865 65.7 10.485Z" fill="white"/>
<path d="M71.397 6.21002V9.45902L71.415 10.224L68.913 6.21002H67.932V11.79H68.805V8.33402L68.778 7.57802L71.379 11.745L71.406 11.79H72.27V6.21002H71.397Z" fill="white"/>
<path d="M61.326 19.575C60.5677 19.5768 59.827 19.8034 59.1975 20.2262C58.568 20.6489 58.0779 21.2489 57.7894 21.9501C57.5009 22.6514 57.4268 23.4224 57.5764 24.1658C57.7261 24.9092 58.0929 25.5915 58.6303 26.1264C59.1678 26.6613 59.8518 27.0249 60.5959 27.1711C61.3399 27.3173 62.1106 27.2395 62.8105 26.9477C63.5104 26.6559 64.108 26.1631 64.5278 25.5316C64.9477 24.9001 65.1708 24.1583 65.169 23.4C65.1763 22.8942 65.0818 22.392 64.891 21.9234C64.7003 21.4549 64.4172 21.0295 64.0586 20.6726C63.7 20.3157 63.2733 20.0346 62.8039 19.846C62.3344 19.6575 61.8318 19.5653 61.326 19.575ZM61.326 25.722C60.8612 25.7545 60.3974 25.6465 59.9949 25.4119C59.5923 25.1773 59.2696 24.827 59.0688 24.4066C58.868 23.9862 58.7982 23.5151 58.8687 23.0546C58.9392 22.594 59.1465 22.1653 59.4639 21.8242C59.7812 21.483 60.1938 21.2452 60.6481 21.1417C61.1024 21.0382 61.5773 21.0737 62.0111 21.2437C62.4449 21.4137 62.8175 21.7102 63.0805 22.0948C63.3436 22.4793 63.4849 22.9341 63.486 23.4C63.5005 23.6952 63.4557 23.9904 63.3543 24.268C63.253 24.5456 63.097 24.8002 62.8957 25.0166C62.6944 25.233 62.4518 25.4069 62.1822 25.5281C61.9126 25.6492 61.6215 25.7152 61.326 25.722ZM52.938 19.575C52.1797 19.5768 51.439 19.8034 50.8095 20.2262C50.18 20.6489 49.6899 21.2489 49.4014 21.9501C49.1129 22.6514 49.0388 23.4224 49.1884 24.1658C49.3381 24.9092 49.7049 25.5915 50.2423 26.1264C50.7798 26.6613 51.4638 27.0249 52.2079 27.1711C52.9519 27.3173 53.7226 27.2395 54.4225 26.9477C55.1224 26.6559 55.72 26.1631 56.1398 25.5316C56.5596 24.9001 56.7828 24.1583 56.781 23.4C56.7883 22.8942 56.6938 22.392 56.503 21.9234C56.3123 21.4549 56.0292 21.0295 55.6706 20.6726C55.312 20.3157 54.8853 20.0346 54.4159 19.846C53.9464 19.6575 53.4438 19.5653 52.938 19.575ZM52.938 25.722C52.4732 25.7545 52.0094 25.6465 51.6069 25.4119C51.2043 25.1773 50.8817 24.827 50.6808 24.4066C50.48 23.9862 50.4102 23.5151 50.4807 23.0546C50.5512 22.594 50.7585 22.1653 51.0759 21.8242C51.3932 21.483 51.8058 21.2452 52.2601 21.1417C52.7144 21.0382 53.1893 21.0737 53.6231 21.2437C54.0569 21.4137 54.4295 21.7102 54.6925 22.0948C54.9556 22.4793 55.0969 22.9341 55.098 23.4C55.1125 23.6952 55.0677 23.9904 54.9664 24.268C54.865 24.5456 54.709 24.8002 54.5077 25.0166C54.3064 25.233 54.0638 25.4069 53.7942 25.5281C53.5246 25.6492 53.2335 25.7152 52.938 25.722ZM42.966 20.754V22.374H46.854C46.793 23.137 46.4759 23.857 45.954 24.417C45.564 24.8144 45.0949 25.1254 44.5771 25.3301C44.0593 25.5347 43.5043 25.6284 42.948 25.605C41.8023 25.605 40.7034 25.1499 39.8933 24.3397C39.0831 23.5296 38.628 22.4308 38.628 21.285C38.628 20.1393 39.0831 19.0405 39.8933 18.2303C40.7034 17.4202 41.8023 16.965 42.948 16.965C44.0464 16.9487 45.107 17.3658 45.9 18.126L47.043 16.983C46.5066 16.4525 45.8697 16.0343 45.1696 15.7531C44.4695 15.4718 43.7204 15.3331 42.966 15.345C42.1659 15.3139 41.3677 15.4446 40.6194 15.7293C39.871 16.014 39.1878 16.4469 38.6107 17.0019C38.0336 17.557 37.5745 18.2228 37.2609 18.9596C36.9473 19.6963 36.7856 20.4888 36.7856 21.2895C36.7856 22.0902 36.9473 22.8827 37.2609 23.6194C37.5745 24.3562 38.0336 25.022 38.6107 25.5771C39.1878 26.1322 39.871 26.565 40.6194 26.8497C41.3677 27.1345 42.1659 27.2652 42.966 27.234C43.7359 27.2648 44.5035 27.1323 45.2186 26.8454C45.9337 26.5584 46.5799 26.1234 47.115 25.569C48.0601 24.5308 48.5637 23.1653 48.519 21.762C48.5222 21.4243 48.4951 21.0869 48.438 20.754H42.966ZM83.745 22.014C83.5103 21.3235 83.0714 20.7205 82.4863 20.285C81.9013 19.8494 81.1978 19.6019 80.469 19.575C79.9767 19.5741 79.4894 19.6741 79.0373 19.8689C78.5852 20.0637 78.1778 20.3492 77.8404 20.7077C77.503 21.0662 77.2427 21.4901 77.0756 21.9532C76.9086 22.4162 76.8382 22.9087 76.869 23.4C76.8613 24.2216 77.1196 25.0236 77.6053 25.6863C78.091 26.3489 78.7781 26.8367 79.5638 27.0766C80.3496 27.3166 81.1919 27.296 81.965 27.0178C82.738 26.7395 83.4004 26.2187 83.853 25.533L82.548 24.633C82.3535 24.9573 82.0775 25.225 81.7476 25.4097C81.4176 25.5944 81.0451 25.6897 80.667 25.686C80.2769 25.7021 79.8911 25.5999 79.5602 25.3926C79.2293 25.1854 78.9688 24.883 78.813 24.525L83.934 22.41L83.745 22.014ZM78.525 23.292C78.5068 23.0129 78.5445 22.733 78.6361 22.4687C78.7277 22.2044 78.8712 21.9611 79.0582 21.7531C79.2452 21.5452 79.472 21.3767 79.7251 21.2577C79.9782 21.1386 80.2525 21.0714 80.532 21.06C80.821 21.0415 81.1091 21.1085 81.3603 21.2525C81.6116 21.3965 81.8149 21.6113 81.945 21.87L78.525 23.292ZM74.367 27H76.05V15.75H74.367V27ZM71.613 20.43H71.55C71.2945 20.1519 70.9823 19.9317 70.6346 19.7842C70.2869 19.6367 69.9116 19.5654 69.534 19.575C68.5505 19.6227 67.623 20.047 66.9438 20.7599C66.2646 21.4729 65.8857 22.4198 65.8857 23.4045C65.8857 24.3892 66.2646 25.3362 66.9438 26.0491C67.623 26.762 68.5505 27.1863 69.534 27.234C69.9156 27.2417 70.2941 27.165 70.6426 27.0094C70.9911 26.8538 71.3009 26.6232 71.55 26.334H71.613V26.883C71.613 28.35 70.83 29.133 69.57 29.133C69.1491 29.1238 68.7404 28.9896 68.3959 28.7477C68.0514 28.5057 67.7865 28.1668 67.635 27.774L66.177 28.377C66.4465 29.054 66.9152 29.6333 67.521 30.0383C68.1269 30.4432 68.8413 30.6548 69.57 30.645C71.541 30.645 73.17 29.484 73.17 26.658V19.8H71.613V20.43ZM69.678 25.722C69.0883 25.6853 68.5348 25.4251 68.1303 24.9945C67.7257 24.5639 67.5005 23.9953 67.5005 23.4045C67.5005 22.8137 67.7257 22.2451 68.1303 21.8145C68.5348 21.3839 69.0883 21.1238 69.678 21.087C69.9662 21.0995 70.249 21.1697 70.5095 21.2937C70.77 21.4176 71.0029 21.5927 71.1943 21.8085C71.3858 22.0243 71.5318 22.2764 71.6239 22.5498C71.7159 22.8232 71.752 23.1124 71.73 23.4C71.7545 23.6886 71.7203 23.9792 71.6293 24.2543C71.5384 24.5293 71.3926 24.783 71.2008 25C71.0089 25.2171 70.7751 25.393 70.5134 25.5171C70.2516 25.6412 69.9674 25.7109 69.678 25.722ZM91.629 15.75H87.597V27H89.28V22.734H91.629C92.1086 22.7685 92.5903 22.7037 93.0438 22.5439C93.4973 22.384 93.9131 22.1324 94.2651 21.8048C94.6171 21.4771 94.8979 21.0805 95.0898 20.6396C95.2818 20.1986 95.3809 19.7229 95.3809 19.242C95.3809 18.7611 95.2818 18.2854 95.0898 17.8445C94.8979 17.4035 94.6171 17.0069 94.2651 16.6793C93.9131 16.3516 93.4973 16.1 93.0438 15.9402C92.5903 15.7803 92.1086 15.7156 91.629 15.75ZM91.629 21.15H89.28V17.316H91.665C92.1758 17.316 92.6657 17.5189 93.0269 17.8801C93.3881 18.2413 93.591 18.7312 93.591 19.242C93.591 19.7528 93.3881 20.2427 93.0269 20.6039C92.6657 20.9651 92.1758 21.168 91.665 21.168L91.629 21.15ZM102.015 19.539C101.402 19.5012 100.792 19.6439 100.259 19.9494C99.7262 20.255 99.2948 20.7099 99.018 21.258L100.503 21.879C100.653 21.6085 100.878 21.3872 101.151 21.2418C101.424 21.0965 101.734 21.0334 102.042 21.06C102.256 21.0351 102.472 21.0529 102.679 21.1125C102.885 21.1721 103.078 21.2723 103.246 21.4072C103.413 21.542 103.552 21.7089 103.655 21.8981C103.757 22.0873 103.821 22.295 103.842 22.509V22.617C103.301 22.3325 102.698 22.1843 102.087 22.185C100.485 22.185 98.847 23.085 98.847 24.723C98.8628 25.0712 98.9485 25.4126 99.0989 25.727C99.2492 26.0414 99.4613 26.3224 99.7224 26.5533C99.9834 26.7841 100.288 26.9602 100.619 27.0709C100.949 27.1817 101.299 27.2249 101.646 27.198C102.068 27.2214 102.489 27.132 102.866 26.9391C103.242 26.7461 103.56 26.4565 103.788 26.1H103.842V27H105.462V22.671C105.462 20.7 103.968 19.557 102.051 19.557L102.015 19.539ZM101.808 25.704C101.259 25.704 100.494 25.425 100.494 24.75C100.494 23.85 101.448 23.544 102.294 23.544C102.829 23.5308 103.357 23.6614 103.824 23.922C103.767 24.4108 103.536 24.8625 103.172 25.1935C102.808 25.5244 102.336 25.7122 101.844 25.722L101.808 25.704ZM111.366 19.8L109.44 24.678H109.386L107.388 19.8H105.588L108.585 26.622L106.875 30.411H108.675L113.238 19.8H111.366ZM96.246 27H97.92V15.75H96.246V27Z" fill="white"/>
<path d="M9.39604 6.78602C9.10915 7.14067 8.96762 7.59102 9.00004 8.04602V27.954C8.96942 28.4134 9.12144 28.8662 9.42304 29.214L9.48604 29.286L20.61 18.135V17.865L9.45904 6.72302L9.39604 6.78602Z" fill="url(#paint0_linear)"/>
<path d="M24.3 21.852L20.61 18.135V17.865L24.3 14.148L24.381 14.202L28.8 16.704C30.06 17.415 30.06 18.585 28.8 19.305L24.399 21.807L24.3 21.852Z" fill="url(#paint1_linear)"/>
<path d="M24.408 21.807L20.61 18L9.396 29.214C9.65031 29.4404 9.97583 29.5706 10.3161 29.5821C10.6564 29.5936 10.99 29.4857 11.259 29.277L24.408 21.807Z" fill="url(#paint2_linear)"/>
<path d="M24.408 14.202L11.259 6.73201C10.9917 6.52043 10.6584 6.40986 10.3177 6.41974C9.97692 6.42961 9.65057 6.55931 9.396 6.78601L20.61 18L24.408 14.202Z" fill="url(#paint3_linear)"/>
<path opacity="0.2" d="M24.3 21.717L11.259 29.142C10.9997 29.3376 10.6838 29.4435 10.359 29.4435C10.0342 29.4435 9.71825 29.3376 9.459 29.142L9.396 29.205L9.459 29.277C9.71825 29.4726 10.0342 29.5785 10.359 29.5785C10.6838 29.5785 10.9997 29.4726 11.259 29.277L24.408 21.807L24.3 21.717Z" fill="black"/>
<path opacity="0.12" d="M9.39604 29.088C9.10695 28.731 8.96528 28.277 9.00004 27.819V27.954C8.96941 28.4133 9.12144 28.8662 9.42304 29.214L9.48604 29.151L9.39604 29.088Z" fill="black"/>
<path opacity="0.12" d="M28.8 19.17L24.3 21.717L24.381 21.807L28.8 19.296C29.0609 19.1857 29.2872 19.0071 29.4551 18.779C29.623 18.551 29.7262 18.2818 29.7541 18C29.6978 18.2561 29.5821 18.4954 29.4164 18.6986C29.2507 18.9019 29.0396 19.0633 28.8 19.17Z" fill="black"/>
<path opacity="0.25" d="M11.259 6.85802L28.8 16.83C29.0395 16.9367 29.2507 17.0981 29.4164 17.3014C29.5821 17.5046 29.6977 17.7439 29.754 18C29.7262 17.7182 29.6229 17.4491 29.455 17.221C29.2871 16.9929 29.0608 16.8143 28.8 16.704L11.259 6.73202C10.008 6.01202 9 6.60602 9 8.04602V8.18102C9 6.74102 10.008 6.14702 11.259 6.85802Z" fill="white"/>
</g>
<defs>
<linearGradient id="paint0_linear" x1="19.62" y1="7.83902" x2="4.51804" y2="22.95" gradientUnits="userSpaceOnUse">
<stop stop-color="#00A0FF"/>
<stop offset="0.01" stop-color="#00A1FF"/>
<stop offset="0.26" stop-color="#00BEFF"/>
<stop offset="0.51" stop-color="#00D2FF"/>
<stop offset="0.76" stop-color="#00DFFF"/>
<stop offset="1" stop-color="#00E3FF"/>
</linearGradient>
<linearGradient id="paint1_linear" x1="30.447" y1="18.009" x2="8.67599" y2="18.009" gradientUnits="userSpaceOnUse">
<stop stop-color="#FFE000"/>
<stop offset="0.41" stop-color="#FFBD00"/>
<stop offset="0.78" stop-color="#FFA500"/>
<stop offset="1" stop-color="#FF9C00"/>
</linearGradient>
<linearGradient id="paint2_linear" x1="22.347" y1="20.07" x2="1.86299" y2="40.554" gradientUnits="userSpaceOnUse">
<stop stop-color="#FF3A44"/>
<stop offset="1" stop-color="#C31162"/>
</linearGradient>
<linearGradient id="paint3_linear" x1="6.57" y1="0.162009" x2="15.714" y2="9.30601" gradientUnits="userSpaceOnUse">
<stop stop-color="#32A071"/>
<stop offset="0.07" stop-color="#2DA771"/>
<stop offset="0.48" stop-color="#15CF74"/>
<stop offset="0.8" stop-color="#06E775"/>
<stop offset="1" stop-color="#00F076"/>
</linearGradient>
<clipPath id="clip0">
<rect width="121.5" height="36" fill="white"/>
</clipPath>
</defs>
</svg>
